<svg width="50" height="50" viewBox="0 0 50 50" fill="none" xmlns="http://www.w3.org/2000/svg">
<path d="M45.8334 34.8749V9.72911C45.8334 7.22911 43.7917 5.37495 41.3125 5.58328H41.1875C36.8125 5.95828 30.1667 8.18745 26.4584 10.5208L26.1042 10.7499C25.5 11.1249 24.5 11.1249 23.8959 10.7499L23.375 10.4374C19.6667 8.12495 13.0417 5.91661 8.66669 5.56245C6.18752 5.35411 4.16669 7.22911 4.16669 9.70828V34.8749C4.16669 36.8749 5.79169 38.7499 7.79169 38.9999L8.39585 39.0833C12.9167 39.6874 19.8959 41.9791 23.8959 44.1666L23.9792 44.2083C24.5417 44.5208 25.4375 44.5208 25.9792 44.2083C29.9792 41.9999 36.9792 39.6874 41.5209 39.0833L42.2084 38.9999C44.2084 38.7499 45.8334 36.8749 45.8334 34.8749Z" stroke="#01AA4E" stroke-width="1.5" stroke-linecap="round" stroke-linejoin="round"/>
<path d="M25 11.4375V42.6875" stroke="#01AA4E" stroke-width="1.5" stroke-linecap="round" stroke-linejoin="round"/>
<path d="M16.1458 17.6875H11.4583" stroke="#01AA4E" stroke-width="1.5" stroke-linecap="round" stroke-linejoin="round"/>
<path d="M17.7083 23.9375H11.4583" stroke="#01AA4E" stroke-width="1.5" stroke-linecap="round" stroke-linejoin="round"/>
</svg>
