<svg width="387" height="290" viewBox="0 0 387 290" fill="none" xmlns="http://www.w3.org/2000/svg">
<path fill-rule="evenodd" clip-rule="evenodd" d="M164.771 0.140353C159.583 0.95045 150.195 4.2061 138.002 9.42387C118.323 17.8446 87.0431 33.743 82.8854 37.437C80.7605 39.3248 79.8235 42.2932 79.8027 47.203C79.787 50.9763 80.0888 52.2234 81.5478 54.4109C83.4414 57.2504 86.499 60.0501 96.4505 68.0561C103.713 73.8991 105.911 75.7914 109.546 79.3341C114.421 84.0848 117.168 87.5665 119.157 91.5151C120.419 94.0216 120.342 94.5709 118.481 96.3525C116.766 97.9932 112.571 100.136 106.268 102.59C87.2504 109.996 86.0515 110.609 80.1103 115.974C78.7833 117.173 76.4953 119.422 75.0261 120.972C68.6129 127.738 65.0413 130.02 61.8029 129.419C58.49 128.804 56.4883 126.762 55.692 123.187C55.2371 121.145 55.5152 116.558 56.2705 113.647C56.9482 111.036 58.2496 107.539 59.4092 105.214C60.2533 103.521 60.5697 103.314 63.8011 102.339C65.6286 101.787 66.235 101.717 69.2807 101.704C71.8481 101.693 73.0769 101.788 74.1895 102.085C76.2104 102.624 78.942 104.007 81.2388 105.654C83.0279 106.936 83.925 107.423 84.1273 107.221C84.298 107.051 85.5677 100.96 85.7202 99.5808L85.8766 98.1648L83.8574 96.8708C76.5661 92.1978 72.2052 87.7717 69.3937 82.1899C68.435 80.2866 66.6238 75.1662 66.3041 73.456L66.1411 72.5839L68.6044 72.7487C71.4778 72.9408 71.3963 73.1302 69.6693 70.271C68.4617 68.2719 62.4027 60.0816 62.1312 60.0816C61.949 60.0816 59.8921 65.2157 59.2295 67.3246C58.9478 68.2215 58.9101 68.6847 59.0813 69.1481C60.0421 71.7448 60.6421 73.6012 61.9504 78.0223C64.2988 85.9587 65.8144 89.3636 68.1558 91.9635C68.7437 92.6165 69.1695 93.2058 69.1019 93.2732C69.0344 93.3407 67.8793 93.6441 66.535 93.9475C63.1611 94.7088 59.696 95.7521 56.7233 96.9016C49.54 99.6793 44.9914 102.441 33.6995 110.882C27.1283 115.794 23.9611 117.821 21.1919 118.887C18.189 120.043 16.7936 120.319 14.4949 120.21C12.0863 120.097 10.5244 119.446 9.40293 118.087C8.09581 116.504 7.91863 114.785 8.67824 111.062C9.49653 107.051 12.2382 99.439 13.0087 99.039C13.1925 98.9435 13.8154 98.7463 14.393 98.6004C17.2276 97.8852 19.6583 94.6523 20.9005 89.9451C21.3743 88.1494 21.7072 84.325 21.5047 83.0021L21.332 81.8749L20.7384 83.3686C19.9512 85.3496 16.204 90.271 15.2232 90.6125C14.2569 90.9487 13.7122 90.9084 12.658 90.4226C10.6989 89.5198 9.19333 87.3751 8.52139 84.5302C8.23257 83.3075 8.18325 82.2134 8.28325 79.2285C8.44901 74.2697 8.8988 72.0724 12.4064 59.0887C13.3179 55.7154 13.993 52.3317 13.7549 52.3317C13.3871 52.3317 9.48146 61.9849 7.99512 66.5681C2.57007 83.2959 2.59976 94.8007 8.0764 97.9366C8.71272 98.3009 9.40703 98.6 9.61937 98.6013C9.83171 98.6025 10.0641 98.6982 10.1358 98.814C10.2075 98.93 9.60498 100.34 8.79697 101.948C6.15967 107.195 5.33294 110.621 5.53363 115.471C5.59847 117.038 5.81971 118.932 6.0252 119.68C7.57091 125.301 11.4957 128.303 17.3385 128.332C19.943 128.345 21.8526 127.821 25.1013 126.201C29.1106 124.203 31.7024 122.458 43.9375 113.522C49.1176 109.738 53.3325 107.019 56.6479 105.321C57.9877 104.635 59.1439 104.074 59.2172 104.074C59.2905 104.074 58.7272 104.998 57.9655 106.127C56.1221 108.86 54.2604 112.784 53.4782 115.585C52.9015 117.651 52.8426 118.206 52.8487 121.511C52.8549 124.9 52.9003 125.288 53.4896 126.982C54.3926 129.578 55.6547 131.573 57.4801 133.293C60.2092 135.863 62.7782 136.737 66.1866 136.256C70.5054 135.646 72.9724 133.896 78.6059 127.445C82.3096 123.204 84.5083 121.027 86.8333 119.3C90.7476 116.393 93.2965 115.216 102.302 112.156C109.743 109.628 111.331 109.017 114.201 107.581C117.031 106.166 119.195 104.641 121.029 102.772C122.514 101.259 122.566 101.165 123.355 98.5621C124.493 94.8057 124.769 92.6938 124.428 90.3406C124.136 88.3192 123.436 86.0198 122.506 84.0248C122.188 83.3405 121.969 82.7383 122.021 82.6864C122.268 82.4404 125.457 85.3432 129.547 89.5362C134.698 94.8166 137.436 97.3456 139.315 98.5564L140.626 99.4012L140.628 102.519C140.632 108.964 141.797 113.501 144.547 117.783C145.916 119.915 148.693 122.609 150.825 123.874C156.745 127.385 164.749 127.918 173.211 125.365C177.69 124.014 183.078 121.644 187.475 119.091C188.313 118.604 189.032 118.206 189.073 118.206C189.114 118.206 189.113 119.44 189.071 120.948C188.973 124.473 189.411 126.782 190.671 129.375C192.307 132.743 195.911 135.729 198.908 136.202C203.808 136.975 210.289 133.056 217.483 124.97C224.309 117.296 229.116 114.069 244.529 106.814C248.633 104.883 251.644 103.323 253.349 102.245C253.791 101.966 253.908 101.981 254.348 102.374C254.622 102.62 255.465 103.743 256.22 104.872C256.976 106 257.954 107.369 258.394 107.915L259.195 108.907L258.803 110.944C257.236 119.073 258.398 124.8 262.428 128.809C264.873 131.243 267.369 132.338 270.465 132.338C272.489 132.338 274.025 131.966 276.238 130.94C280.118 129.142 283.392 126.154 290.38 118.035C297.383 109.898 302.083 105.487 307.948 101.547C310.523 99.8169 314.151 97.7354 314.151 97.988C314.151 98.0285 313.942 98.4944 313.686 99.0233C312.106 102.288 310.657 108.288 310.273 113.161C309.522 122.677 312.261 130.194 317.488 132.961C321.67 135.175 327.927 134.772 335.27 131.816C341.475 129.319 352.646 123.059 357.552 119.33C364.795 113.825 368.593 107.375 369.095 99.7262C369.238 97.5644 369.26 97.4919 369.837 97.3488C370.984 97.0639 374.255 95.4118 375.676 94.3997C377.799 92.8873 379.783 90.6055 380.83 88.4715C382.207 85.6653 382.521 84.186 382.527 80.4822C382.534 76.2215 382.188 75.1862 378.978 69.8579C376.782 66.2118 375.797 64.2007 375.797 63.3621C375.797 62.9753 376.638 63.2308 378.777 64.267C379.712 64.7204 380.836 65.1612 381.274 65.2472C382.012 65.3914 381.741 65.0518 377.591 60.6339C372.615 55.3357 369.582 52.3317 369.211 52.3317C368.687 52.3317 367.349 57.916 367.349 60.1039C367.349 61.1552 367.399 61.2473 368.273 61.798C368.781 62.1185 369.23 62.5044 369.271 62.6557C370.169 65.9932 371.487 68.8837 374.136 73.326C376.264 76.8935 377.465 79.2116 378.211 81.189L378.735 82.5795L378.063 83.3934C376.564 85.2092 372.393 87.7464 369.327 88.7078L367.994 89.1257L367.554 88.5649C367.312 88.2565 366.432 86.9272 365.599 85.6108C362.769 81.1421 361.273 79.5312 358.997 78.5005C358.081 78.0856 357.453 77.9903 355.588 77.9833C353.458 77.9755 353.199 78.0257 351.777 78.7236C347.962 80.5953 344.979 85.867 344.586 91.4333C344.245 96.2483 345.972 99.338 349.649 100.493C351.847 101.183 356.444 101.163 361.498 100.44C365.469 99.8728 365.512 99.881 365.519 101.21C365.524 102.217 364.748 103.614 363.53 104.791C361.887 106.379 352.272 113.501 348.841 115.672C337.606 122.782 328.2 125.883 321.868 124.565C317.887 123.736 315.19 121.015 313.986 116.611C313.357 114.311 313.422 108.805 314.116 105.691C314.706 103.043 315.581 100.34 316.542 98.2031C317.12 96.9178 317.271 96.7543 318.12 96.5054C319.352 96.1441 322.922 96.1357 324.091 96.4911C325.674 96.9725 327.727 98.3976 330.507 100.945C331.981 102.295 333.288 103.366 333.412 103.325C333.776 103.204 334.44 100.981 334.729 98.9225C335.818 91.1511 330.102 86.1809 321.212 87.1676C313.055 88.0732 305.614 92.3752 295.681 101.928C292.97 104.536 292.686 104.752 293.028 103.949C295.009 99.2993 296.441 93.5698 296.775 88.9542C297.304 81.6454 295.507 57.6768 293.021 38.9001C292.715 36.5899 292.51 34.6552 292.565 34.6005C292.62 34.5458 293.761 35.1291 295.102 35.897C296.861 36.9047 297.508 37.1812 297.429 36.8915C297.202 36.0579 289.204 15.2833 289.042 15.1075C288.949 15.0063 287.924 17.1289 286.764 19.8245L284.655 24.7257L285.811 33.6851C290.116 67.0556 291.145 82.2503 290.387 101.201C290.193 106.043 290.064 107.497 289.79 107.924C289.167 108.895 282.306 116.443 280.335 118.327C275.634 122.819 272.189 124.588 268.145 124.588C265.015 124.588 262.722 122.946 261.895 120.112C261.263 117.946 261.118 115.958 261.407 113.431C261.542 112.246 261.691 111.239 261.738 111.192C261.785 111.146 262.299 111.269 262.88 111.466C264.298 111.946 265.534 111.917 267.696 111.352C272.681 110.048 277.065 106.838 278.961 103.102C280.261 100.542 280.47 98.783 280.157 93.0189C279.499 80.915 276.195 44.5984 275.018 36.5468C274.857 35.45 274.787 34.5531 274.86 34.554C274.934 34.5546 275.303 34.765 275.68 35.0215C276.466 35.5569 278.306 36.5288 279.109 36.8338C279.632 37.0319 279.646 37.0132 279.42 36.4238C279.289 36.0841 278.363 33.567 277.361 30.8301C273.635 20.6494 271.21 14.7216 270.77 14.7216C270.391 14.7216 268.424 20.4124 267.698 23.6113L267.31 25.3208L269.392 41.8464C271.907 61.8096 274.617 84.2687 275.481 92.3152L276.116 98.222L274.988 99.2129C272.412 101.476 266.945 103.446 265.117 102.771C264.61 102.584 264.638 102.505 266.569 98.5975C268.603 94.4829 270.167 90.7557 270.032 90.3497C269.903 89.9643 266.532 93.7097 265.208 95.7092C264.528 96.7368 263.488 98.4753 262.898 99.5721C262.308 100.669 261.745 101.567 261.646 101.567C261.414 101.567 259.708 99.7173 259.385 99.1165C259.166 98.7064 259.36 98.4286 261.038 96.7473C264.14 93.6382 265.397 90.2243 265.387 84.927C265.383 82.4115 265.308 81.8642 264.749 80.2542C263.704 77.2436 261.954 74.7703 259.612 72.9955C258.029 71.7956 256.31 70.7948 255.833 70.7948C255.228 70.7948 251.744 74.4577 250.605 76.2927C247.677 81.0092 246.969 86.4152 248.631 91.3679C249.018 92.5215 249.642 93.9999 250.016 94.6536C250.65 95.7596 250.669 95.8572 250.289 96.0598C250.064 96.1797 247.465 97.3233 244.514 98.6013C237.767 101.523 232.168 104.259 228.667 106.344C223.481 109.432 221.756 110.867 213.574 118.89C204.735 127.557 202.592 129.033 198.851 129.033C197.073 129.033 196.789 128.967 195.466 128.252C193.799 127.349 192.928 126.396 192.014 124.475C191.188 122.736 190.86 121.155 190.86 118.913V117.136L193.2 115.588C198.377 112.164 205.307 106.618 207.627 104.042C209.763 101.669 210.586 99.266 210.579 95.4122C210.572 91.2833 209.489 86.7562 207.048 80.6607C206.406 79.058 205.687 77.2569 205.449 76.6578L205.017 75.5687L207.756 75.7233C209.262 75.8083 210.495 75.809 210.495 75.7249C210.495 75.4646 203.824 68.2874 201.573 66.1252L199.44 64.0769L199.167 65.019C199.016 65.5373 198.672 67.4174 198.402 69.1971L197.911 72.4332L199.051 74.9911C201.947 81.4945 207.607 96.3976 207.412 97.0085C207.167 97.7796 205.065 99.7713 202.462 101.698C199.967 103.546 193.414 107.612 193.229 107.427C193.104 107.302 194.598 103.854 195.324 102.592C195.613 102.091 195.915 101.27 195.996 100.769L196.144 99.857L195.683 100.427C195.131 101.109 193.123 105.068 192.374 106.949L191.84 108.291L188.667 109.898C180.486 114.043 171.563 117.137 165.358 117.982C162.159 118.417 157.865 118.18 155.585 117.442C150.992 115.955 147.514 112.656 145.493 107.872C144.701 105.999 143.972 103.491 143.708 101.736L143.556 100.717L144.871 100.943C147.654 101.422 151.672 100.424 154.46 98.5628C158.267 96.0204 160.996 91.3886 161.606 86.433C162.086 82.5298 160.768 71.5563 157.058 48.5707C156.309 43.9321 155.631 39.7886 155.552 39.363C155.436 38.741 155.469 38.6261 155.724 38.7763C155.899 38.8791 156.988 39.5607 158.145 40.2908C159.302 41.0211 160.297 41.6185 160.356 41.6185C160.416 41.6185 160.048 40.7211 159.54 39.624C159.032 38.5272 157.245 34.432 155.57 30.5238C153.895 26.6155 152.103 22.5794 151.586 21.5544C150.69 19.7746 150.629 19.708 150.226 20.0718C149.186 21.0112 147.932 25.2648 147.871 28.0561C147.845 29.2797 147.997 30.5545 148.334 31.9311C149.841 38.0916 156.14 75.0841 156.955 82.566C157.327 85.9792 155.477 89.1339 152.11 90.827C149.813 91.9817 146.48 92.3248 144.408 91.6195L143.309 91.246L143.441 89.3971L143.573 87.5483L143.057 89.0158C142.773 89.8229 142.445 90.5154 142.327 90.5544C141.972 90.6727 138.431 87.874 134.922 84.7018C122.425 73.4035 118.914 70.676 107.181 63.151C100.476 58.85 97.0788 56.5816 93.939 54.3079C89.6886 51.2298 84.4638 46.8627 84.4638 46.3884C84.4638 46.0898 88.9292 42.9909 92.5597 40.7701C103.478 34.0912 119.776 26.1596 138.575 18.3778C152.965 12.4208 166.225 7.81576 166.938 8.52784C167.281 8.87044 167.196 10.3623 166.76 11.6492C165.952 14.0337 163.856 17.7003 160.313 22.9275C158.147 26.1229 156.345 29.5377 156.825 29.5377C156.928 29.5377 157.677 28.7939 158.49 27.8851C163.63 22.1338 168.859 14.0111 170.804 8.75783C171.729 6.2587 171.945 3.18152 171.282 1.95702C170.446 0.410683 167.788 -0.33057 164.771 0.140353ZM231.843 2.97797C229.843 3.41721 227.932 4.18946 224.08 6.1135C214.014 11.1418 206.833 12.7078 201.446 11.0493C198.743 10.2173 196.75 9.05095 194.013 6.69885C192.721 5.58878 192.712 5.58559 192.438 6.09754C192.286 6.38087 192.112 7.31041 192.051 8.16359C191.94 9.70925 191.943 9.72042 193.042 11.3634C194.544 13.6104 196.591 17.6308 197.391 19.9066C197.754 20.9405 198.134 21.7869 198.235 21.7871C198.335 21.7875 198.577 21.4062 198.772 20.9396C199.235 19.8343 199.09 18.8485 197.951 15.3615C197.45 13.8302 197.071 12.5475 197.107 12.5113C197.144 12.4751 197.987 12.7411 198.982 13.1028C201.676 14.082 204.905 14.5739 207.527 14.4043C211.896 14.1221 216.109 12.8883 225.332 9.19092C230.564 7.09387 231.864 6.65691 233.144 6.56551C234.623 6.45975 234.689 6.47752 234.95 7.04896C235.438 8.11823 234.231 10.4806 230.904 14.9699C229.851 16.3917 228.992 17.6099 228.995 17.6769C228.998 17.7439 229.849 16.927 230.884 15.8613C235.414 11.2002 238.437 5.27833 237.069 3.74566C236.092 2.65041 234.439 2.40766 231.843 2.97797ZM84.578 9.79905C78.5504 12.8215 67.8138 18.1453 60.7188 21.6298C53.6239 25.1141 47.102 28.447 46.2255 29.0362C44.3227 30.3157 43.3624 31.5867 43.198 33.0432L43.0795 34.0929L46.5908 32.4166C48.5219 31.4943 54.9823 28.2982 60.9471 25.3138C91.7421 9.90527 90.6067 10.5132 93.3848 7.94544C94.6061 6.81669 96.3363 4.72467 96.3363 4.37684C96.3363 3.97156 94.6287 4.75885 84.578 9.79905ZM186.485 14.4367C184.814 17.5852 184.202 19.5106 184.068 22.0389C183.921 24.8162 184.196 25.7797 185.191 25.9784C186.886 26.3169 189.037 25.0238 189.491 23.3934C190.077 21.2872 189.564 18.4551 188.293 16.7763C187.884 16.2356 187.451 15.6617 187.332 15.5007C187.185 15.3033 187.287 14.8399 187.645 14.0766C188.123 13.057 188.145 12.4422 187.704 12.4422C187.615 12.4422 187.067 13.3399 186.485 14.4367ZM172.183 20.3814L170.059 25.3208L170.752 30.5634C173.55 51.7144 175.272 68.4844 175.784 79.5704C176.179 88.1072 175.975 104.996 175.427 109.089L175.29 110.114L175.763 109.516C177.196 107.701 179.377 102.658 180.571 98.3951C182.182 92.6487 182.505 89.2351 182.188 81.3185C181.706 69.2698 180.411 54.8381 178.421 39.3409C178.124 37.0226 177.901 35.1044 177.927 35.0785C177.953 35.0525 179.047 35.6365 180.357 36.3759C181.667 37.1153 182.779 37.6808 182.827 37.6325C182.925 37.5354 174.676 15.8392 174.448 15.5946C174.371 15.5108 173.351 17.6648 172.183 20.3814ZM213.003 20.3251L210.874 25.249L211.616 30.9833C213.686 46.9694 215.577 64.2023 216.199 72.7322C216.774 80.6274 216.963 90.8277 216.685 99.0476C216.535 103.505 216.356 107.767 216.289 108.519L216.166 109.886L216.651 109.317C217.449 108.379 219.753 103.449 220.621 100.826C221.568 97.9608 222.461 94.092 222.845 91.1953C223.676 84.907 222.11 62.0669 219.378 40.6265C218.997 37.6364 218.717 35.1596 218.757 35.1229C218.796 35.086 219.897 35.6622 221.203 36.4032C222.509 37.1443 223.612 37.7164 223.654 37.6747C223.726 37.6031 215.368 15.6354 215.208 15.4761C215.167 15.4351 214.175 17.6169 213.003 20.3251ZM357.618 18.5809C354.849 20.1799 353.806 23.9908 355.387 26.7338C355.814 27.4746 356.258 27.8439 357.349 28.367L358.76 29.0428L356.376 31.4023C355.041 32.7234 351.908 35.3497 349.257 37.3697C344.879 40.7051 341.129 44.0103 341.407 44.2881C341.579 44.4598 346.56 41.8031 348.833 40.3275C349.913 39.6268 351.675 38.3553 352.749 37.5024C354.848 35.8348 359.11 31.5449 360.043 30.1602C360.357 29.6941 360.687 29.3123 360.776 29.3114C360.866 29.3104 361.473 29.5199 362.126 29.7768C363.51 30.3216 363.573 30.2719 363.786 28.4671C363.921 27.3153 363.888 27.1813 363.356 26.7641C362.383 25.9999 362.229 25.4526 362.103 22.317C362 19.7356 361.916 19.223 361.504 18.67C360.784 17.7049 359.198 17.6684 357.618 18.5809ZM186.978 19.5325C188.012 20.1512 189.033 21.1131 189.033 21.4682C189.033 22.1764 186.843 23.3781 185.546 23.382C184.927 23.384 184.62 22.3271 184.908 21.1846C185.491 18.8722 185.656 18.7409 186.978 19.5325ZM251.528 20.897C250.215 21.2054 249.435 21.6822 248.545 22.72C246.482 25.1264 246.519 28.9886 248.623 30.7558C249.035 31.1021 249.669 31.4444 250.03 31.5167C250.392 31.5889 250.736 31.7255 250.795 31.8203C250.997 32.1465 249.046 34.3169 247.043 35.9952C245.938 36.9202 243.304 38.9999 241.188 40.6167C237.17 43.6868 234.793 45.7656 233.954 46.9418C233.478 47.6092 233.558 47.5839 235.961 46.3033C242.769 42.6759 247.624 38.9083 251.357 34.3538C252.295 33.2094 253.168 32.2753 253.298 32.278C253.427 32.2807 253.987 32.4888 254.542 32.7403C255.151 33.0158 255.635 33.115 255.76 32.9896C255.875 32.8752 256.025 32.1649 256.093 31.4114C256.205 30.1807 256.168 30.0148 255.734 29.7827C254.864 29.3177 254.619 28.4388 254.521 25.4257C254.441 22.9648 254.358 22.4531 253.919 21.7445C253.458 20.9998 252.957 20.6089 252.544 20.6709C252.46 20.6836 252.003 20.7853 251.528 20.897ZM312.254 22.3006C309.983 26.3719 309.07 30.0611 309.644 32.8428L309.927 34.2105H311.452C313.164 34.2105 313.939 33.8072 314.692 32.5237C315.814 30.6111 315.211 26.6566 313.504 24.7366L312.622 23.7439L313.173 22.5411C313.687 21.4196 313.711 20.876 313.244 20.876C313.137 20.876 312.691 21.5172 312.254 22.3006ZM359.375 21.9981C359.938 22.5596 360.043 22.8465 360.043 23.8217C360.043 24.4581 359.942 24.9789 359.819 24.9789C359.419 24.9789 357.661 24.2306 357.018 23.7859C356.672 23.5475 356.39 23.1976 356.39 23.0084C356.39 22.4925 357.654 21.3319 358.216 21.3319C358.487 21.3319 359.008 21.6316 359.375 21.9981ZM251.398 24.5413C252.227 24.9846 252.781 26.9262 252.296 27.6909C252.125 27.9606 251.941 27.949 251.101 27.615C250.555 27.398 249.781 27.0197 249.381 26.7742C248.71 26.3623 248.672 26.2759 248.891 25.65C249.299 24.4813 250.386 24.0006 251.398 24.5413ZM200.74 26.636C199.439 28.0568 199.079 29.8477 199.079 34.9054C199.079 37.0932 199.002 38.8819 198.908 38.8805C198.814 38.8789 198.223 37.8812 197.595 36.6633C195.643 32.8766 193.528 31.1333 190.887 31.1333C190.063 31.1333 189.881 31.2299 189.487 31.8741C188.619 33.2953 189.067 35.3442 190.395 36.0301C191.261 36.4767 192.08 36.468 193.064 36.0016C193.52 35.786 193.934 35.7135 194.042 35.8307C194.738 36.587 197.367 39.9855 197.866 40.7742C198.199 41.3012 198.698 42.2875 198.975 42.9656L199.477 44.1988L199.859 43.6175C200.502 42.6367 200.653 40.8257 200.389 37.2432C200.107 33.4127 200.325 31.8141 201.285 30.6747C201.981 29.8489 202.412 29.8229 203.396 30.5475C204.426 31.3065 204.787 31.1062 204.787 29.775C204.787 28.0725 203.602 26.6805 201.797 26.2643C201.36 26.1635 201.083 26.2613 200.74 26.636ZM313.633 28.7301C314.686 29.6825 314.698 29.7082 314.33 30.268C313.837 31.0204 312.592 31.5892 311.438 31.5892C310.617 31.5892 310.488 31.5162 310.352 30.9758C310.205 30.3893 310.423 29.2222 310.929 27.8938C311.147 27.3214 311.216 27.2936 311.863 27.5188C312.247 27.6524 313.043 28.1974 313.633 28.7301ZM131.095 31.7533C129.977 34.4578 128.938 37.6122 128.258 40.3648C127.548 43.2371 127.51 48.1378 128.187 49.4676C128.819 50.7113 129.646 51.2494 131.088 51.3574C131.979 51.4242 132.506 51.3333 133.095 51.011C134.621 50.177 135.841 47.3988 135.819 44.8097L135.809 43.556L135.284 44.7071C134.469 46.4966 133.438 47.5449 132.493 47.5449C131.457 47.5449 130.669 46.999 130.057 45.8575C129.62 45.0417 129.559 44.5922 129.58 42.3023C129.602 39.8914 129.709 39.2807 130.903 34.6953C131.618 31.9532 132.16 29.6679 132.109 29.6168C132.058 29.5658 131.602 30.5272 131.095 31.7533ZM60.9937 30.9696C60.7293 31.2509 60.2777 31.9924 59.9905 32.6176C59.5099 33.6634 59.4617 34.1341 59.3884 38.4843C59.3448 41.0856 59.2357 43.2141 59.1462 43.2141C59.0567 43.2141 58.7475 42.7267 58.4596 42.1314C56.2543 37.5728 54.0031 35.4719 51.3174 35.4664C49.9459 35.4635 49.303 36.1673 49.303 37.6717C49.303 40.1068 51.185 41.3972 53.2111 40.3509C53.5901 40.1553 53.988 40.027 54.0953 40.066C54.6401 40.2638 57.9037 44.7217 58.7818 46.4677L59.7877 48.4676L60.1962 47.8431C60.5583 47.2892 60.6051 46.6227 60.6088 41.9682C60.6131 36.4591 60.699 35.8904 61.6871 34.8373C62.3022 34.1817 62.7319 34.1909 63.6655 34.8783C64.7719 35.6935 65.1306 35.442 65.0057 33.939C64.8927 32.5786 64.3651 31.6906 63.3205 31.1034C62.1435 30.4417 61.5241 30.4062 60.9937 30.9696ZM328.703 34.4854C325.157 42.5341 322.556 50.8241 321.208 58.3721C320.544 62.0934 320.365 68.217 320.853 70.5119C321.897 75.419 324.447 77.7419 328.763 77.7159C331.073 77.7018 332.451 77.0902 334.129 75.3339C335.633 73.76 336.762 71.4998 337.444 68.7018C337.973 66.5318 338.269 62.8552 338.02 61.5427L337.851 60.6515L337.332 62.0257C335.712 66.3164 333.465 69.1673 331.398 69.5543C328.626 70.0736 325.573 66.8031 324.895 62.5889C324.151 57.9583 324.944 52.6859 328.188 40.7067C329.82 34.6796 330.538 31.4611 330.301 31.2249C330.24 31.1636 329.521 32.6309 328.703 34.4854ZM355.887 42.7053C355.171 43.9255 354.416 45.3312 354.208 45.829L353.829 46.7344L354.71 47.4927C355.871 48.4922 360.343 51.8772 360.495 51.8708C360.802 51.8578 363.241 47.8862 363.594 46.823L363.993 45.6229L362.533 44.282C361.32 43.168 357.586 40.4688 357.278 40.4829C357.229 40.4852 356.603 41.4851 355.887 42.7053ZM32.3219 43.9458C30.8643 46.5479 29.7083 49.2223 29.1898 51.192C28.5918 53.4641 28.4884 56.4831 28.954 58.0821C29.2348 59.0474 29.3508 59.1753 30.0649 59.3091C30.5035 59.3912 31.4412 59.3308 32.1486 59.1746C33.1644 58.9503 33.6283 58.6907 34.3543 57.9394C35.4548 56.8011 35.8322 55.6742 35.8322 53.5258C35.8322 50.9016 34.4039 47.3339 33.0673 46.6197C32.4869 46.3097 32.5239 45.8384 33.2214 44.6501C33.8123 43.6433 33.8879 42.7536 33.3963 42.5923C33.2493 42.5439 32.7659 43.153 32.3219 43.9458ZM312.888 43.7737C311.816 45.1759 311.583 46.3836 311.608 50.3942C311.621 52.4 311.571 54.439 311.496 54.9252L311.361 55.8091L310.035 53.4404C307.867 49.5668 306.394 48.2454 303.833 47.8786C302.886 47.7428 302.696 47.7909 302.193 48.2935C300.983 49.5009 301.249 51.7377 302.72 52.7269C303.658 53.3583 304.317 53.3772 305.441 52.8046L306.303 52.3659L308.115 54.6218C309.112 55.8627 310.402 57.8075 310.982 58.9437L312.036 61.0098L312.466 60.1468C312.854 59.367 312.888 58.8086 312.824 54.3526C312.765 50.2337 312.813 49.2773 313.118 48.5483C313.843 46.8162 314.691 46.4369 315.833 47.3336C316.689 48.0061 317.219 47.8344 317.298 46.8593C317.401 45.5963 316.519 44.1119 315.301 43.499C313.933 42.8102 313.594 42.8489 312.888 43.7737ZM191.048 50.0087C190.335 51.2236 189.566 52.615 189.337 53.1003L188.922 53.9831L189.948 54.8809C191.311 56.0737 195.403 59.1712 195.607 59.1648C195.945 59.1544 198.368 55.2627 198.749 54.1173L199.148 52.9174L197.915 51.8054C196.605 50.6239 194.463 49.0357 193.143 48.2657L192.344 47.7995L191.048 50.0087ZM74.4183 51.4543C73.2475 54.4855 72.774 56.5736 72.7381 58.8658C72.6998 61.3202 73.0824 62.1002 74.5012 62.4592C75.2003 62.6361 75.4435 62.5944 75.9633 62.2074C76.8734 61.5304 77.3864 60.517 77.5195 59.135L77.6367 57.9162L77.1926 58.7142C76.9483 59.1532 76.5291 59.7103 76.2613 59.9524C75.5912 60.5578 74.666 60.2191 74.1162 59.1673C73.5448 58.0741 73.7372 55.4934 74.6334 52.2305C75.0103 50.8585 75.2802 49.6976 75.2332 49.6506C75.1864 49.6039 74.8197 50.4156 74.4183 51.4543ZM32.5216 51.3276C33.0239 51.6266 33.839 52.233 34.3331 52.6749L35.2313 53.4782L34.7694 54.1016C34.0509 55.0717 32.5474 55.8002 31.1931 55.8346C30.0168 55.8647 30.0143 55.8631 29.804 55.0227C29.6368 54.3549 29.7072 53.8021 30.1442 52.3483C30.7609 50.2966 30.7784 50.2891 32.5216 51.3276ZM249.413 56.2066C248.706 57.5857 248.043 58.714 247.938 58.714C247.833 58.714 247.163 58.2161 246.449 57.6078C244.945 56.3261 243.34 55.3234 241.501 54.5153L240.201 53.9439L238.709 56.9559C237.889 58.6123 237.19 60.1675 237.156 60.4119C237.077 60.9783 240.592 63.7109 243.151 65.0721L244.94 66.0235L245.789 64.4772C247.095 62.0993 247.433 61.5648 247.892 61.1497C248.295 60.7859 248.387 60.8206 249.669 61.8199C251.459 63.2151 255.457 65.7074 255.573 65.5009C255.593 65.4665 256.154 64.5946 256.822 63.5636C258.19 61.4492 258.645 60.3494 258.66 59.1245C258.669 58.3401 258.547 58.1849 256.9 56.8948C255.092 55.4775 251.874 53.6993 251.118 53.6993C250.813 53.6993 250.345 54.3863 249.413 56.2066ZM352.914 57.5047C352.226 58.2631 352.052 59.1805 352.052 62.0339C352.052 63.5928 351.974 64.8681 351.88 64.8679C351.786 64.8674 351.426 64.3256 351.079 63.6634C350.733 63.0015 350.124 62.0658 349.726 61.5844C348.608 60.2302 346.759 59.6494 346.098 60.4447C345.66 60.9715 345.726 62.2618 346.219 62.8055C346.692 63.3268 347.914 63.4378 348.353 62.9992C348.523 62.8297 348.697 62.808 348.813 62.9423C350.108 64.4528 351.023 65.7213 351.582 66.7807C352.188 67.9307 352.285 68.0201 352.498 67.6225C352.632 67.372 352.737 65.7331 352.737 63.8704C352.737 60.6986 352.759 60.5366 353.29 59.9234C353.836 59.2918 353.851 59.2888 354.513 59.6768C355.287 60.1302 355.476 60.0255 355.476 59.1446C355.476 57.8225 353.672 56.6682 352.914 57.5047ZM143.853 58.3668C142.882 59.8945 142.685 61.1513 142.685 65.7912C142.685 68.0417 142.608 69.8823 142.513 69.8814C142.419 69.8807 141.942 69.137 141.452 68.2289C139.061 63.7913 137.12 62.1392 134.291 62.1344C133.306 62.1326 132.641 63.1627 132.64 64.6894C132.639 65.5588 132.769 65.9128 133.322 66.5412C134.21 67.5503 135.131 67.7344 136.427 67.1621L137.424 66.7217L138.695 68.2455C140.565 70.4861 141.934 72.5608 142.562 74.1026L143.117 75.4659L143.618 74.3356C144.098 73.2524 144.112 73.022 143.959 68.8249C143.79 64.1806 143.923 63.0496 144.779 61.8502C145.325 61.0845 146.115 61.0317 147.053 61.6984C147.995 62.3683 148.393 62.1374 148.393 60.9202C148.393 59.2637 147.038 57.6962 145.375 57.4266C144.572 57.2966 144.507 57.337 143.853 58.3668ZM44.4629 64.1275C43.1377 65.5417 42.7808 66.8234 42.3219 71.8205C42.1263 73.9517 41.8906 75.7727 41.7984 75.8669C41.7059 75.9612 41.2842 75.1928 40.8609 74.1594C39.2438 70.2108 37.7298 68.369 35.5761 67.7303C33.9258 67.2412 33.6746 67.2749 32.9986 68.077C31.9865 69.2778 32.2997 71.5821 33.5986 72.4904C34.2454 72.9429 35.4331 72.9461 36.3012 72.4979L36.9757 72.1498L38.7348 74.8206C39.7632 76.382 40.7917 78.2817 41.2107 79.3938C41.9913 81.4655 42.0979 81.491 42.8226 79.7808C43.1032 79.1191 43.2446 77.7902 43.3667 74.6697C43.5446 70.1235 43.7583 69.1985 44.9056 68.0025C45.6606 67.2154 45.8469 67.2195 46.8894 68.0465C48.1271 69.0287 48.4605 68.79 48.3465 67.0039C48.2689 65.7869 48.1484 65.4475 47.5801 64.8442C46.9755 64.2025 45.7549 63.5007 45.2432 63.5007C45.1371 63.5007 44.7859 63.7827 44.4629 64.1275ZM190.928 73.2089C188.955 78.2014 187.972 81.9647 187.747 85.3829C187.483 89.3923 188.396 91.5197 190.59 92.01C193.42 92.6425 195.613 90.2018 195.83 86.1807L195.928 84.3572L195.207 85.7727C194.418 87.3224 193.385 88.3465 192.612 88.3452C191.71 88.3436 190.624 87.474 190.114 86.3455C189.728 85.4898 189.632 84.8479 189.645 83.2175C189.665 80.9472 189.997 79.1875 191.352 74.1655C191.854 72.3058 192.225 70.6676 192.177 70.5251C192.13 70.3829 191.568 71.5905 190.928 73.2089ZM95.6813 72.4724C94.5237 73.7026 94.2271 75.1206 94.078 80.1403L93.939 84.813L92.9264 82.9004C90.8332 78.9463 89.1824 77.3496 86.7267 76.904C85.4127 76.6656 84.8524 76.8903 84.3519 77.8563C83.0457 80.378 85.6545 83.1493 88.0217 81.7548C88.4824 81.4835 88.8829 81.2914 88.9114 81.3276C88.94 81.3641 89.8347 82.4963 90.8996 83.8434C92.6967 86.1168 93.6568 87.6817 94.2915 89.3718L94.5484 90.0556L95.029 89.1439C95.5539 88.1478 95.6137 86.9244 95.4182 81.166C95.331 78.5969 95.374 78.0968 95.7404 77.405C96.6329 75.7205 97.3169 75.4263 98.3912 76.2653C99.5193 77.1463 100.125 76.6852 99.8519 75.152C99.6268 73.8856 98.9284 72.9258 97.8539 72.4065C96.6069 71.8039 96.3018 71.8132 95.6813 72.4724ZM233.471 73.5738C231.377 77.1456 229.864 81.2066 229.556 84.0864C229.397 85.5687 229.725 88.3769 230.135 89.0359C230.431 89.512 233.202 89.4593 234.162 88.9592C235.114 88.4635 236.167 87.164 236.491 86.0845C237.339 83.2596 236.265 78.9345 234.244 77.0298C233.406 76.2402 233.4 76.0971 234.144 74.6757C235.112 72.8282 234.497 71.8228 233.471 73.5738ZM258.898 81.7363C259.714 82.5516 260.689 83.7825 261.064 84.4716C262.452 87.0231 261.817 89.8259 259.44 91.6375C258.227 92.5623 256.063 93.4337 255.457 93.2416C254.489 92.9348 252.882 90.2818 252.158 87.792C251.381 85.1255 252.172 82.0383 254.196 79.8364L254.999 78.9625L256.206 79.6085C256.87 79.9636 258.081 80.9212 258.898 81.7363ZM233.555 81.5335C234.12 81.8966 234.919 82.5022 235.331 82.8792C235.952 83.4481 236.039 83.6403 235.842 84.0086C235.018 85.5459 231.404 86.7102 230.823 85.6259C230.463 84.9539 230.536 84.0624 231.1 82.2531C231.684 80.3812 231.738 80.3653 233.555 81.5335ZM356.786 88.3931C358.302 88.9499 360.157 90.1787 360.157 90.6255C360.157 91.522 353.714 92.1345 351.481 91.4504C350.662 91.1997 350.575 91.1028 350.639 90.5159C350.921 87.9561 353.332 87.1237 356.786 88.3931ZM109.873 117.237C109.423 118.209 108.812 119.388 108.515 119.858L107.975 120.712L106.371 119.367C104.779 118.033 100.684 115.753 100.302 115.989C99.9887 116.182 97.2571 121.682 97.193 122.249C97.1473 122.654 97.5868 123.097 99.3417 124.414C101.785 126.248 104.65 127.889 105.016 127.664C105.146 127.583 105.599 126.833 106.024 125.996C106.448 125.159 107.111 124.043 107.496 123.516L108.196 122.558L110.237 124.086C112.106 125.486 115.454 127.483 115.608 127.29C115.644 127.246 116.106 126.564 116.636 125.776C117.99 123.761 118.708 122.119 118.701 121.055C118.695 120.186 118.607 120.076 116.82 118.687C115.07 117.328 111.711 115.471 111.003 115.471C110.831 115.471 110.323 116.266 109.873 117.237ZM44.8693 117.329C43.2793 121.612 42.7121 125.56 43.4608 127.135C44.5487 129.424 47.2995 128.579 47.9027 125.77C48.3048 123.899 48.2301 123.389 47.7189 124.514C46.9017 126.31 45.5857 126.61 44.7218 125.195C44.0587 124.11 44.1432 121.995 44.9818 118.668C45.3677 117.137 45.638 115.839 45.5821 115.783C45.5264 115.728 45.2056 116.423 44.8693 117.329ZM132.068 119.886C128.803 121.541 120.728 125.541 114.124 128.775C107.52 132.01 101.618 135.032 101.008 135.492C99.7188 136.465 99.0138 137.545 99.1172 138.388C99.1889 138.973 99.5063 138.827 115.743 130.733C124.847 126.194 133.137 121.927 134.165 121.251C135.829 120.155 138.575 117.526 138.575 117.028C138.575 116.636 137.852 116.953 132.068 119.886ZM19.1 149.247C17.6201 151.648 16.4899 153.687 16.5885 153.779C16.6872 153.87 56.0529 163.894 104.068 176.053L191.369 198.16L279.416 175.998C327.842 163.809 367.463 153.743 367.463 153.629C367.463 153.516 366.954 151.497 366.331 149.143C365.445 145.793 365.127 144.89 364.87 144.989C363.981 145.329 353.733 148.287 348.17 149.808C322.708 156.772 298.529 161.635 282.072 163.103C280.565 163.237 278.87 163.399 278.305 163.462C277.74 163.525 273.476 163.676 268.83 163.797C259.037 164.053 254.119 164.315 247.155 164.951C220.539 167.385 201.984 173.747 192.948 183.538L191.351 185.268L189.626 183.765C177.952 173.601 162.324 167.827 139.945 165.408C133.939 164.759 126.843 164.313 116.2 163.914C98.5156 163.251 94.6936 162.919 85.6054 161.261C71.3897 158.666 45.3339 151.985 22.1332 144.987C21.891 144.913 21.0035 146.16 19.1 149.247ZM129.692 263.578C120.866 283.277 120.106 284.835 118.584 286.355C117.72 287.217 117.084 287.636 116.333 287.836C115.476 288.065 115.287 288.21 115.287 288.638V289.161H121.794H128.301V288.591C128.301 288.085 128.204 288.02 127.445 288.016C126.005 288.006 124.565 287.569 123.908 286.942C122.654 285.744 122.805 284.159 124.553 280.197L125.627 277.764L132.729 277.77L139.831 277.776L141.28 281.24C142.078 283.145 142.784 285.034 142.849 285.438C143.14 287.229 142.455 287.829 139.774 288.132C138.58 288.267 138.347 288.365 138.347 288.727C138.347 289.146 138.664 289.161 147.952 289.161H157.557L157.484 288.657C157.429 288.275 157.194 288.109 156.512 287.968C155.226 287.703 154.254 286.866 153.212 285.131C152.712 284.298 148.829 275.735 144.583 266.103C140.337 256.471 136.76 248.591 136.634 248.592C136.509 248.593 133.385 255.336 129.692 263.578ZM32.0193 249.455C28.645 250.656 27.2201 252.727 25.4315 259.027C24.1887 263.405 23.6173 264.853 22.741 265.85C21.6238 267.12 20.9407 267.351 17.9664 267.462L15.2837 267.563L15.2887 260.411C15.2933 253.88 15.3312 253.178 15.7273 252.307C16.2748 251.103 17.1319 250.649 19.1822 250.477C20.5222 250.365 20.7633 250.28 20.7633 249.922C20.7633 249.517 20.3434 249.499 10.489 249.499C0.613624 249.499 0.214752 249.516 0.214752 249.925C0.214752 250.287 0.443525 250.366 1.75772 250.46C3.68243 250.598 4.59798 251.058 5.14983 252.168C5.55943 252.99 5.58021 253.822 5.58021 269.33C5.58021 284.481 5.5519 285.679 5.17677 286.365C4.68612 287.261 3.77696 287.76 2.33057 287.926C0.454028 288.141 0.214752 288.229 0.214752 288.709C0.214752 289.153 0.399919 289.161 10.489 289.161C20.611 289.161 20.7633 289.154 20.7633 288.705C20.7633 288.454 20.6864 288.247 20.5921 288.244C19.6701 288.22 17.1774 287.722 16.6712 287.46C15.3465 286.777 15.2837 286.338 15.2837 277.776V269.993L16.1399 270.15C17.5356 270.404 17.9456 270.626 18.5991 271.481C18.9402 271.928 21.2553 276.063 23.7438 280.67L28.2679 289.047L34.9041 289.107C41.4039 289.166 41.5402 289.158 41.5402 288.713C41.5402 288.399 41.3445 288.218 40.9123 288.129C37.6371 287.458 37.1613 286.917 32.5579 278.638C30.5688 275.06 28.5622 271.632 28.0989 271.02C27.3509 270.032 25.5977 268.849 24.1819 268.378C23.9278 268.294 23.9979 268.097 24.4899 267.513C25.5233 266.287 26.1468 264.837 27.3829 260.787C28.7962 256.157 29.254 254.928 29.9405 253.921C30.4574 253.162 31.5675 252.463 32.2543 252.463C32.7561 252.463 33.5488 253.562 33.5504 254.26C33.5527 255.322 34.034 256.664 34.6441 257.31C35.7437 258.474 37.8152 258.63 39.412 257.669C40.2166 257.185 41.0835 255.623 41.0835 254.657C41.0835 252.648 39.8346 250.609 38.0339 249.678C36.6923 248.985 33.655 248.872 32.0193 249.455ZM41.9968 249.935C41.9968 250.271 42.2196 250.408 42.9672 250.531C45.2588 250.907 46.6202 251.961 48.2625 254.628C48.8027 255.506 52.4056 261.957 56.2687 268.965L63.2924 281.706L62.7148 282.869C61.4494 285.417 59.9487 286.879 58.5966 286.881C57.548 286.882 56.9724 286.066 56.4233 283.798C55.8719 281.521 55.3634 280.857 53.9734 280.596C52.2501 280.273 50.1626 281.443 49.5452 283.078C48.7249 285.251 50.0922 288.165 52.4793 289.331C53.5898 289.873 54.0026 289.947 55.8061 289.927C59.4233 289.888 61.2978 288.825 63.5022 285.563C64.1233 284.644 67.9062 277.495 71.9084 269.675C75.9108 261.855 79.6066 254.792 80.121 253.979C81.3324 252.063 82.5875 250.943 83.8889 250.616C84.6545 250.424 84.9204 250.247 84.9204 249.928C84.9204 249.518 84.6289 249.499 78.2992 249.499C72.005 249.499 71.678 249.52 71.678 249.922C71.678 250.283 71.9276 250.365 73.3909 250.489C75.4419 250.662 76.528 251.075 77.0595 251.885C77.7622 252.956 77.2054 254.409 72.6495 263.389C70.3241 267.973 68.3458 271.808 68.2531 271.91C68.1604 272.013 65.7475 267.859 62.891 262.679C57.2507 252.45 56.9457 251.711 58.0662 250.978C58.4009 250.759 59.3174 250.534 60.148 250.468C61.4008 250.367 61.6321 250.283 61.6321 249.924C61.6321 249.516 61.2394 249.499 51.8144 249.499C42.2996 249.499 41.9968 249.513 41.9968 249.935ZM87.2036 249.94C87.2036 250.339 87.3456 250.411 88.1299 250.411C90.6578 250.411 92.2898 251.519 92.5661 253.422C92.6442 253.96 92.6768 261.496 92.6385 270.168C92.5704 285.609 92.5595 285.949 92.1051 286.557C91.4337 287.454 90.2304 288.021 88.9952 288.021C87.6322 288.021 87.2036 288.19 87.2036 288.729C87.2036 289.146 87.5452 289.161 97.2496 289.161C106.936 289.161 107.296 289.146 107.296 288.732C107.296 288.243 106.709 288.029 105.355 288.024C104.23 288.02 103.03 287.433 102.403 286.58C101.951 285.966 101.927 285.605 101.861 278.571L101.793 271.206L104.829 271.053C109.094 270.838 111.205 270.532 113.087 269.855C117.262 268.353 119.675 265.625 120.328 261.667C121.048 257.295 118.779 253.191 114.548 251.212C111.388 249.734 110.706 249.664 98.3341 249.561C87.2041 249.468 87.2036 249.468 87.2036 249.94ZM159.58 249.925C159.58 250.287 159.809 250.366 161.123 250.46C162.952 250.591 164.003 251.077 164.612 252.075C165.044 252.781 165.058 253.34 165.059 269.151C165.06 284.185 165.028 285.565 164.664 286.326C164.159 287.383 163.097 287.926 161.121 288.137C159.823 288.276 159.58 288.37 159.58 288.731C159.58 289.146 159.947 289.161 169.969 289.161C179.789 289.161 180.357 289.138 180.357 288.754C180.357 288.417 180.039 288.304 178.511 288.1C176.448 287.824 175.667 287.391 175.049 286.181C174.692 285.483 174.65 284.58 174.65 277.707L174.649 270.014H181.738H188.827L188.759 277.945C188.697 285.068 188.65 285.939 188.288 286.49C187.66 287.446 186.886 287.828 185.036 288.094C183.632 288.296 183.325 288.413 183.325 288.75C183.325 289.14 183.856 289.161 193.599 289.161C203.485 289.161 203.874 289.145 203.874 288.734C203.874 288.381 203.632 288.28 202.457 288.148C200.725 287.952 199.827 287.588 199.079 286.779L198.508 286.161L198.449 269.597C198.394 254.171 198.418 252.978 198.792 252.242C199.355 251.134 200.412 250.597 202.294 250.463C203.643 250.366 203.874 250.288 203.874 249.925C203.874 249.516 203.475 249.499 193.599 249.499C183.724 249.499 183.325 249.516 183.325 249.925C183.325 250.288 183.557 250.366 184.923 250.464C186.964 250.61 188.207 251.349 188.563 252.629C188.706 253.141 188.803 256.318 188.803 260.497L188.805 267.507H181.727H174.649L174.654 260.383C174.659 253.879 174.697 253.178 175.093 252.307C175.654 251.073 176.586 250.595 178.702 250.458C180.128 250.366 180.357 250.292 180.357 249.925C180.357 249.516 179.961 249.499 169.969 249.499C159.982 249.499 159.58 249.516 159.58 249.925ZM221.454 249.955C221.454 250.359 221.606 250.411 222.776 250.411C224.321 250.411 225.848 251.081 226.578 252.08C227.042 252.716 227.048 252.928 227.048 269.176C227.048 284.488 227.02 285.679 226.644 286.366C226.053 287.446 225.322 287.82 223.278 288.089C221.753 288.29 221.454 288.398 221.454 288.745C221.454 289.141 221.943 289.161 231.843 289.161C241.865 289.161 242.231 289.146 242.231 288.731C242.231 288.37 241.989 288.276 240.69 288.137C238.907 287.947 237.613 287.363 237.04 286.49C236.679 285.94 236.63 285.064 236.564 277.945L236.491 270.014H243.585H250.679V277.786C250.679 286.49 250.652 286.659 249.129 287.507C248.659 287.768 247.595 288.051 246.74 288.14C245.44 288.277 245.199 288.369 245.199 288.731C245.199 289.146 245.566 289.161 255.588 289.161C265.585 289.161 265.976 289.145 265.976 288.734C265.976 288.374 265.733 288.284 264.416 288.154C262.619 287.978 261.527 287.495 260.855 286.58C260.387 285.943 260.382 285.765 260.382 269.484C260.382 256.08 260.44 252.896 260.695 252.294C261.17 251.168 262.312 250.586 264.292 250.459C265.746 250.366 265.976 250.293 265.976 249.925C265.976 249.516 265.58 249.499 255.588 249.499C245.351 249.499 245.199 249.506 245.199 249.955C245.199 250.347 245.352 250.411 246.284 250.412C247.811 250.414 248.986 250.789 249.835 251.546L250.565 252.197L250.63 259.852L250.696 267.507H243.61H236.523L236.529 260.725C236.532 256.996 236.626 253.548 236.739 253.064C237.14 251.339 238.65 250.411 241.059 250.411C242.079 250.411 242.231 250.352 242.231 249.955C242.231 249.506 242.079 249.499 231.843 249.499C221.606 249.499 221.454 249.506 221.454 249.955ZM267.576 249.898C267.577 250.204 267.957 250.389 269.198 250.687C271.197 251.169 272.101 251.837 273.401 253.794C273.955 254.629 277.691 261.257 281.702 268.523L288.995 281.734L288.417 282.883C287.115 285.47 285.642 286.881 284.246 286.881C283.297 286.881 282.542 285.78 282.114 283.773C281.657 281.627 281.056 280.846 279.687 280.615C277.117 280.182 275.109 281.924 275.109 284.587C275.109 288.288 278.602 290.61 283.04 289.859C286.049 289.35 287.497 288.27 289.609 284.961C290.083 284.219 293.752 277.193 297.763 269.348C301.774 261.503 305.541 254.366 306.134 253.489C307.315 251.742 308.272 250.972 309.756 250.576C310.44 250.393 310.726 250.196 310.726 249.908C310.726 249.524 310.319 249.499 304.105 249.499C297.8 249.499 297.484 249.52 297.484 249.924C297.484 250.287 297.737 250.371 299.249 250.508C301.196 250.684 302.392 251.138 302.77 251.845C303.407 253.032 302.906 254.336 298.352 263.343C295.928 268.136 293.893 272.058 293.831 272.057C293.662 272.055 283.725 253.905 283.345 252.904C283.056 252.14 283.061 251.985 283.401 251.469C283.827 250.819 285.002 250.414 286.467 250.412C287.285 250.411 287.438 250.339 287.438 249.955C287.438 249.506 287.286 249.499 277.506 249.499C268.199 249.499 267.574 249.524 267.576 249.898ZM312.781 249.922C312.781 250.281 313.024 250.365 314.395 250.48C316.277 250.638 317.254 251.128 317.91 252.243C318.362 253.011 318.377 253.427 318.447 267.507C318.526 283.377 318.41 285.875 317.546 286.81C316.852 287.561 315.766 288.02 314.672 288.024C313.367 288.029 312.781 288.248 312.781 288.732C312.781 289.146 313.143 289.161 322.941 289.161C332.739 289.161 333.101 289.146 333.101 288.732C333.101 288.244 332.521 288.031 331.161 288.019C329.837 288.007 328.415 287.289 327.927 286.387C327.562 285.712 327.507 284.824 327.434 278.417L327.351 271.207L330.626 271.053C338.142 270.7 341.777 269.367 344.205 266.074C346.312 263.216 346.733 259.19 345.253 256.034C343.954 253.262 341.214 251.161 337.782 250.305C335.02 249.617 333.013 249.508 322.998 249.504C313.198 249.5 312.781 249.517 312.781 249.922ZM343.605 249.898C343.607 250.204 343.99 250.389 345.249 250.693C347.164 251.154 348.127 251.843 349.342 253.622C349.806 254.301 353.524 260.902 357.606 268.292L365.028 281.729L364.448 282.881C363.144 285.47 361.672 286.881 360.276 286.881C359.327 286.881 358.571 285.78 358.144 283.773C357.686 281.627 357.086 280.846 355.717 280.615C354.673 280.439 353.242 280.786 352.453 281.405C351.115 282.456 350.725 284.972 351.615 286.809C352.233 288.083 353.619 289.254 354.972 289.646C356.41 290.062 358.947 290.014 360.541 289.541C362.358 289.003 363.601 287.965 365.108 285.73C365.822 284.671 369.711 277.342 373.751 269.444C377.79 261.546 381.563 254.379 382.135 253.517C383.241 251.852 384.645 250.756 385.997 250.503C386.538 250.401 386.756 250.237 386.756 249.93C386.756 249.518 386.474 249.499 380.135 249.499C373.829 249.499 373.513 249.52 373.513 249.924C373.513 250.287 373.766 250.371 375.279 250.508C377.222 250.684 378.421 251.138 378.798 251.842C379.453 253.062 378.983 254.289 374.399 263.332C371.965 268.132 369.923 272.058 369.86 272.056C369.739 272.054 360.13 254.553 359.437 253.074C359.07 252.288 359.063 252.145 359.373 251.592C359.778 250.87 360.88 250.442 362.383 250.424C363.311 250.413 363.467 250.345 363.467 249.955C363.467 249.506 363.315 249.499 353.536 249.499C344.228 249.499 343.604 249.524 343.605 249.898ZM106.413 252.124C109.7 253.252 111.354 257.074 110.729 262.093C110.221 266.163 108.28 268.352 104.74 268.845C103.948 268.956 102.966 268.995 102.558 268.934L101.816 268.822V260.153V251.483L103.585 251.622C104.559 251.699 105.831 251.925 106.413 252.124ZM330.719 251.799C333.361 252.282 334.941 253.546 335.924 255.966C336.325 256.951 336.399 257.619 336.398 260.212C336.397 262.902 336.33 263.459 335.863 264.63C335.211 266.268 334.093 267.546 332.739 268.2C331.628 268.737 329.309 269.106 328.135 268.932L327.393 268.822V260.187V251.551H328.379C328.921 251.551 329.974 251.662 330.719 251.799ZM135.919 268.988L138.778 275.598L132.82 275.659C129.543 275.693 126.817 275.675 126.763 275.62C126.708 275.565 128.023 272.482 129.686 268.768C131.349 265.055 132.789 262.098 132.886 262.197C132.982 262.297 134.347 265.353 135.919 268.988Z" fill="#01AA4E"/>
</svg>
