<svg width="50" height="51" viewBox="0 0 50 51" fill="none" xmlns="http://www.w3.org/2000/svg">
<path d="M24.9999 25.5349C30.7529 25.5349 35.4166 20.8712 35.4166 15.1182C35.4166 9.36524 30.7529 4.70154 24.9999 4.70154C19.247 4.70154 14.5833 9.36524 14.5833 15.1182C14.5833 20.8712 19.247 25.5349 24.9999 25.5349Z" stroke="#01AA4E" stroke-width="1.5" stroke-linecap="round" stroke-linejoin="round"/>
<path d="M40.0209 33.3266L32.6458 40.7017C32.3541 40.9934 32.0833 41.535 32.0208 41.9308L31.625 44.7432C31.4791 45.7641 32.1875 46.4724 33.2083 46.3266L36.0208 45.9308C36.4166 45.8683 36.9792 45.5975 37.25 45.3058L44.625 37.9308C45.8958 36.66 46.5 35.1808 44.625 33.3058C42.7708 31.4516 41.2917 32.0558 40.0209 33.3266Z" stroke="#01AA4E" stroke-width="1.5" stroke-miterlimit="10" stroke-linecap="round" stroke-linejoin="round"/>
<path d="M38.9585 34.389C39.5835 36.639 41.3334 38.389 43.5834 39.014" stroke="#01AA4E" stroke-width="1.5" stroke-miterlimit="10" stroke-linecap="round" stroke-linejoin="round"/>
<path d="M7.104 46.3682C7.104 38.3057 15.1249 31.7849 24.9999 31.7849C27.1666 31.7849 29.2498 32.0974 31.1873 32.6807" stroke="#01AA4E" stroke-width="1.5" stroke-linecap="round" stroke-linejoin="round"/>
</svg>
